<svg xmlns="http://www.w3.org/2000/svg" xmlns:xlink="http://www.w3.org/1999/xlink" version="1.2" width="31.81mm" height="37.77mm" viewBox="0.0000 -0.0000 18.0994 21.4945">
<style type="text/css">
<![CDATA[
tspan { white-space: pre; }
]]>
</style>
<g transform="translate(0.0000, 6.7790)">
<line stroke-linejoin="round" stroke-linecap="round" stroke-width="0.1000" stroke="currentColor" x1="0.0500" y1="0" x2="18.0394" y2="0"/>
</g>
<g transform="translate(0.0000, 5.7790)">
<line stroke-linejoin="round" stroke-linecap="round" stroke-width="0.1000" stroke="currentColor" x1="0.0500" y1="0" x2="18.0394" y2="0"/>
</g>
<g transform="translate(0.0000, 4.7790)">
<line stroke-linejoin="round" stroke-linecap="round" stroke-width="0.1000" stroke="currentColor" x1="0.0500" y1="0" x2="18.0394" y2="0"/>
</g>
<g transform="translate(0.0000, 3.7790)">
<line stroke-linejoin="round" stroke-linecap="round" stroke-width="0.1000" stroke="currentColor" x1="0.0500" y1="0" x2="18.0394" y2="0"/>
</g>
<g transform="translate(0.0000, 2.7790)">
<line stroke-linejoin="round" stroke-linecap="round" stroke-width="0.1000" stroke="currentColor" x1="0.0500" y1="0" x2="18.0394" y2="0"/>
</g>
<g transform="translate(0.0000, 19.0092)">
<line stroke-linejoin="round" stroke-linecap="round" stroke-width="0.1000" stroke="currentColor" x1="0.0500" y1="0" x2="18.0394" y2="0"/>
</g>
<g transform="translate(0.0000, 17.5092)">
<line stroke-linejoin="round" stroke-linecap="round" stroke-width="0.1000" stroke="currentColor" x1="0.0500" y1="0" x2="18.0394" y2="0"/>
</g>
<g transform="translate(0.0000, 16.0092)">
<line stroke-linejoin="round" stroke-linecap="round" stroke-width="0.1000" stroke="currentColor" x1="0.0500" y1="0" x2="18.0394" y2="0"/>
</g>
<g transform="translate(0.0000, 14.5092)">
<line stroke-linejoin="round" stroke-linecap="round" stroke-width="0.1000" stroke="currentColor" x1="0.0500" y1="0" x2="18.0394" y2="0"/>
</g>
<g transform="translate(0.0000, 13.0092)">
<line stroke-linejoin="round" stroke-linecap="round" stroke-width="0.1000" stroke="currentColor" x1="0.0500" y1="0" x2="18.0394" y2="0"/>
</g>
<g transform="translate(0.0000, 11.5092)">
<line stroke-linejoin="round" stroke-linecap="round" stroke-width="0.1000" stroke="currentColor" x1="0.0500" y1="0" x2="18.0394" y2="0"/>
</g>
<g transform="translate(-0.0600, 10.8941)">
<rect x="0.0000" y="-8.1651" width="0.1600" height="16.3302" ry="0.0500" fill="currentColor"/>
</g>
<g transform="translate(16.4946, 11.2988)">
<polygon stroke-linejoin="round" stroke-linecap="round" stroke-width="0.1000" fill="currentColor" stroke="currentColor" points="-0.3175 0 0.3175 0 0 0.9921"/>
</g>
<g transform="translate(13.9766, 15.2592)">
<path stroke-width="0.1000" stroke-linejoin="round" stroke-linecap="round" stroke="currentColor" fill="none" d="M0.5326 -5.9327L1.2275 -5.9327C1.2275 -5.9327 2.5179 -5.9327 2.5179 -3.9604"/>
</g>
<g transform="translate(7.7000, 4.2790)">
<path transform="scale(0.0028, -0.0028)" d="M208 139c69 0 117 -40 117 -99c0 -91 -107 -179 -209 -179c-69 0 -116 40 -116 99c0 91 106 179 208 179z" fill="currentColor"/>
</g>
<g transform="translate(0.8000, 5.7790)">
<path transform="scale(0.0040, -0.0040)" d="M266 -635h-6c-108 0 -195 88 -195 197c0 58 53 103 112 103c54 0 95 -47 95 -103c0 -52 -43 -95 -95 -95c-11 0 -21 2 -31 6c26 -39 68 -65 117 -65h4zM461 -203c68 24 113 90 113 164c0 90 -66 179 -173 190c19 -89 48 -242 60 -354zM74 28c0 -145 141 -247 264 -247
c1 0 47 0 82 6c-7 64 -29 203 -63 364c-79 -8 -124 -61 -124 -119c0 -44 25 -91 81 -123c5 -5 7 -10 7 -15c0 -11 -10 -22 -22 -22c-15 0 -126 62 -126 187c0 88 58 174 160 197c-14 58 -29 117 -46 175c-107 -121 -213 -243 -213 -403zM250 553c-29 96 -52 170 -52 346
c0 115 55 224 149 292c6 5 14 5 20 0c68 -80 133 -245 133 -358c0 -143 -86 -255 -180 -364c21 -68 39 -138 56 -207c2 0 7 1 13 1c155 0 256 -128 256 -261c0 -113 -74 -212 -180 -246c3 -35 5 -70 5 -105c0 -19 -1 -39 -2 -58c-7 -119 -88 -225 -202 -228l1 43
c93 2 153 92 159 191c1 18 2 37 2 55c0 31 -1 61 -4 92c-5 -1 -44 -8 -89 -8c-193 0 -333 180 -333 374c0 177 131 306 248 441zM428 916c0 34 1 66 -20 129c-99 -48 -162 -149 -162 -259c0 -52 12 -115 36 -194c80 97 146 198 146 324z" fill="currentColor"/>
</g>
<g transform="translate(1.4846, 9.2418)">
<text font-family="serif" font-style="italic" font-size="1.3860" text-anchor="start" fill="currentColor">
<tspan>8</tspan>
</text>
</g>
<g transform="translate(5.0000, 4.7790)">
<path transform="scale(0.0040, -0.0040)" d="M250 262c116 0 176 -106 176 -163c0 -40 -30 -72 -67 -72c-31 0 -75 25 -75 75c0 38 27 77 72 77c4 0 9 0 14 -1c-28 37 -72 59 -120 59c-106 0 -113 -73 -113 -186v-51v-51c0 -113 7 -187 113 -187c80 0 139 70 158 151c2 7 7 10 12 10c6 0 13 -4 13 -12
c0 -22 -50 -174 -183 -174c-59 0 -250 19 -250 263c0 62 18 262 250 262z" fill="currentColor"/>
</g>
<g color="rgb(100.0000%, 100.0000%, 100.0000%)">
<g transform="translate(7.7000, 13.0092)">
<rect x="0.0888" y="-0.5900" width="0.8877" height="1.1799" ry="0.0000" fill="currentColor"/>
</g>
</g>
<g transform="translate(7.7888, 13.5992)">
<text font-family="serif" font-weight="bold" font-size="1.7461" text-anchor="start" fill="currentColor">
<tspan>1</tspan>
</text>
</g>
<g transform="translate(0.8000, 15.2592)">
<path transform="scale(0.0040, -0.0040)" d="M208 -722c-49 0 -100 59 -100 62c0 11 12 26 24 26c16 0 34 -37 72 -37c65 0 89 99 89 195v8c0 35 9 109 18 163c-39 -13 -70 -40 -70 -70c0 -32 26 -27 26 -50c0 -9 -1 -27 -43 -27c-41 0 -84 28 -84 75c0 82 118 130 234 130c71 0 215 -11 215 -103
c0 -18 -6 -70 -69 -110c58 -11 102 -36 102 -91c0 -85 -90 -158 -179 -158c-73 0 -111 51 -111 60c0 12 16 25 28 25c13 0 17 -25 54 -25c44 0 95 41 95 93c0 46 -49 63 -100 63h-1c-6 0 -8 8 -8 16c0 11 5 24 18 24c36 0 69 39 69 77c0 35 -23 66 -80 76
c-11 -62 -31 -173 -40 -220c-20 -102 -84 -202 -159 -202zM546 257c0 -8 -18 -361 -18 -365c0 -10 0 -30 21 -30c18 0 47 20 55 20c5 0 9 -8 9 -17c0 -8 -3 -16 -12 -19c-30 -9 -57 -34 -87 -34c-32 0 -45 29 -53 58c-16 61 -26 125 -31 191c-27 -35 -56 -68 -87 -101
c6 -10 24 -33 64 -33c7 0 11 1 12 1c5 0 8 -7 8 -15c0 -6 0 -29 -56 -29c-17 0 -51 4 -70 33c-67 -63 -123 -105 -173 -105h-3c-31 1 -50 21 -75 32c-3 1 -5 5 -5 9c0 11 11 28 25 28c13 0 31 -20 57 -20c71 0 243 203 305 390c9 27 33 37 57 37c29 0 57 -15 57 -31z
M288 540c0 -9 -1 -24 -42 -24c-49 0 -91 36 -91 84c0 30 17 120 232 120c46 0 120 -41 171 -41c69 0 108 44 119 44s23 -11 23 -19c0 -7 -63 -75 -150 -75c-17 0 -30 2 -44 6c-9 -59 -26 -151 -35 -193c-22 -96 -88 -185 -163 -185c-6 0 -12 1 -19 2c-36 8 -67 43 -96 62
c-3 2 -4 5 -4 9c0 11 12 26 23 26c17 0 43 -48 82 -48c56 0 82 77 85 150c2 45 13 150 22 208c-12 3 -31 5 -32 5c-62 0 -113 -28 -113 -70c0 -39 32 -36 32 -61z" fill="currentColor"/>
</g>
<g transform="translate(8.5529, 4.7790)">
<rect x="-0.0650" y="-3.1000" width="0.1300" height="2.4856" ry="0.0400" fill="currentColor"/>
</g>
<g transform="translate(8.6179, 1.7190)">
<path transform="scale(0.0028, -0.0028)" d="M115 -723c0 12 43 85 43 193c0 101 -90 205 -158 280h-21v250h21c0 -196 207 -334 207 -530c0 -71 -15 -140 -41 -206c-5 -10 -14 -13 -23 -13c-14 0 -28 10 -28 26z" fill="currentColor"/>
</g>
<g transform="translate(12.1675, 9.0090)">
<text font-family="serif" font-style="italic" font-size="1.7461" text-anchor="start" fill="currentColor">
<tspan>1</tspan>
</text>
</g>
<g transform="translate(12.6114, 10.3186)">
<polygon stroke-linejoin="round" stroke-linecap="round" stroke-width="0.1000" fill="currentColor" stroke="currentColor" points="-0.3175 0 0.3175 0 0 -0.9921"/>
</g>
<g transform="translate(12.0788, 15.2592)">
<path stroke-width="0.1000" stroke-linejoin="round" stroke-linecap="round" stroke="currentColor" fill="none" d="M0.5326 -3.0400L0.5326 -5.9327"/>
</g>
<g transform="translate(9.6386, 3.7790)">
<path transform="scale(0.0040, -0.0040)" d="M218 136c66 0 108 -36 108 -89c0 -89 -113 -183 -218 -183c-66 0 -108 36 -108 89c0 89 113 183 218 183z" fill="currentColor"/>
</g>
<g transform="translate(9.7036, 4.7790)">
<rect x="-0.0650" y="-0.8139" width="0.1300" height="3.3139" ry="0.0400" fill="currentColor"/>
</g>
<g transform="translate(13.2266, 4.2790)">
<path stroke-width="0.1000" stroke-linejoin="round" stroke-linecap="round" stroke="currentColor" fill="currentColor" d="M0.0000 0.3940C0.2000 0.2207 0.2000 -0.2207 0.0000 -0.3940C0.1500 -0.2207 0.1500 0.2207 0.0000 0.3940z"/>
</g>
<g transform="translate(11.8488, 4.2790)">
<path stroke-width="0.1000" stroke-linejoin="round" stroke-linecap="round" stroke="currentColor" fill="currentColor" d="M0.0000 0.3940C-0.2000 0.2207 -0.2000 -0.2207 0.0000 -0.3940C-0.1500 -0.2207 -0.1500 0.2207 0.0000 0.3940z"/>
</g>
<g transform="translate(12.0788, 4.2790)">
<path transform="scale(0.0028, -0.0028)" d="M208 139c69 0 117 -40 117 -99c0 -91 -107 -179 -209 -179c-69 0 -116 40 -116 99c0 91 106 179 208 179z" fill="currentColor"/>
</g>
<g color="rgb(100.0000%, 100.0000%, 100.0000%)">
<g transform="translate(12.0788, 13.0092)">
<rect x="0.0888" y="-0.5900" width="0.8877" height="1.1799" ry="0.0000" fill="currentColor"/>
</g>
</g>
<g transform="translate(12.1675, 13.5992)">
<text font-family="serif" font-weight="bold" font-size="1.7461" text-anchor="start" fill="currentColor">
<tspan>1</tspan>
</text>
</g>
<g transform="translate(9.7274, 9.0090)">
<text font-family="serif" font-style="italic" font-size="1.7461" text-anchor="start" fill="currentColor">
<tspan>1</tspan>
</text>
</g>
<g transform="translate(10.1712, 10.3186)">
<polygon stroke-linejoin="round" stroke-linecap="round" stroke-width="0.1000" fill="currentColor" stroke="currentColor" points="-0.3175 0 0.3175 0 0 -0.9921"/>
</g>
<g transform="translate(7.7000, 15.2592)">
<path stroke-width="0.1000" stroke-linejoin="round" stroke-linecap="round" stroke="currentColor" fill="none" d="M1.0765 -2.5500L1.5647 -2.5500C1.5647 -2.5500 2.4712 -2.5500 2.4712 -4.9406"/>
</g>
<g transform="translate(13.9766, 3.7790)">
<path transform="scale(0.0040, -0.0040)" d="M218 136c66 0 108 -36 108 -89c0 -89 -113 -183 -218 -183c-66 0 -108 36 -108 89c0 89 113 183 218 183z" fill="currentColor"/>
</g>
<g transform="translate(14.0416, 4.7790)">
<rect x="-0.0650" y="-0.8139" width="0.1300" height="3.3139" ry="0.0400" fill="currentColor"/>
</g>
<g color="rgb(100.0000%, 100.0000%, 100.0000%)">
<g transform="translate(16.0849, 13.0092)">
<rect x="-0.3817" y="-0.5183" width="1.5829" height="1.0366" ry="0.0000" fill="currentColor"/>
</g>
</g>
<g transform="translate(16.9360, 13.0092)">
<path stroke-width="0.1000" stroke-linejoin="round" stroke-linecap="round" stroke="currentColor" fill="currentColor" d="M0.0000 0.4683C0.3333 0.2622 0.3333 -0.2622 0.0000 -0.4683C0.2583 -0.2622 0.2583 0.2622 0.0000 0.4683z"/>
</g>
<g transform="translate(16.0531, 13.0092)">
<path stroke-width="0.1000" stroke-linejoin="round" stroke-linecap="round" stroke="currentColor" fill="currentColor" d="M0.0000 0.4683C-0.3333 0.2622 -0.3333 -0.2622 0.0000 -0.4683C-0.2583 -0.2622 -0.2583 0.2622 0.0000 0.4683z"/>
</g>
<g transform="translate(16.1531, 13.4775)">
<text font-family="serif" font-weight="bold" font-size="1.3860" text-anchor="start" fill="currentColor">
<tspan>1</tspan>
</text>
</g>
</svg>
